<svg width="11" height="11" viewBox="0 0 11 11" fill="none" xmlns="http://www.w3.org/2000/svg">
<path d="M5.53124 0.162354C8.28593 0.162354 10.5126 2.39401 10.5126 5.14372C10.5126 7.89842 8.28593 10.1251 5.53124 10.1251C2.78152 10.1251 0.549866 7.89842 0.549866 5.14372C0.549866 2.39401 2.78152 0.162354 5.53124 0.162354ZM5.35689 2.61817C5.15265 2.61817 4.98328 2.78255 4.98328 2.99177V5.50736C4.98328 5.63688 5.05302 5.75643 5.1676 5.82617L7.12029 6.99181C7.18007 7.02668 7.24483 7.04661 7.31457 7.04661C7.4391 7.04661 7.56363 6.98185 7.63337 6.8623C7.73798 6.68795 7.68319 6.4588 7.50386 6.34921L5.73049 5.29316V2.99177C5.73049 2.78255 5.56112 2.61817 5.35689 2.61817Z" fill="white"/>
</svg>
